<svg aria-hidden="true" style="position: absolute; width: 0; height: 0; overflow: hidden;" version="1.1" xmlns="http://www.w3.org/2000/svg" xmlns:xlink="http://www.w3.org/1999/xlink" viewBox="0 0 512 512" width="512" height="512">
<defs>
<symbol id="logo" viewBox="0 0 32 32">
<path d="M29.917 15.635v3.578c0 0.409-0.33 0.74-0.738 0.742-0.002 0-0.005 0-0.007 0l-2.42 0.169c-0.053 0.004-0.096 0.041-0.11 0.091-0.201 0.772-0.484 1.51-0.839 2.205 0 0.001-0 0.001-0.001 0.001-0.035 0.066-0.12 0.086-0.18 0.040l-2.225-1.695c-0.044-0.034-0.060-0.094-0.038-0.145 0.126-0.289 0.235-0.587 0.327-0.893 0.117-0.391 0.205-0.795 0.262-1.209 0.034-0.248 0.056-0.5 0.067-0.754 0.005-0.113 0.007-0.227 0.007-0.342 0-0.22-0.009-0.438-0.026-0.654-0.189-2.35-1.39-4.414-3.167-5.756-1.343-1.014-3.016-1.616-4.828-1.616-4.431 0-8.022 3.593-8.022 8.026 0 1.137 0.236 2.219 0.663 3.199 0.022 0.051 0.006 0.111-0.038 0.145l-2.224 1.694c-0.060 0.045-0.147 0.026-0.181-0.041-0.004-0.008-0.008-0.016-0.013-0.024-0.006-0.011-0.011-0.022-0.016-0.033-0.176-0.349-0.333-0.709-0.471-1.078-0.131-0.349-0.244-0.706-0.339-1.071-0.013-0.050-0.057-0.087-0.109-0.091l-2.42-0.169c-0.002-0-0.004-0-0.007-0-0.408-0.002-0.738-0.333-0.738-0.742v-3.578c0-0.409 0.33-0.74 0.738-0.742 0.003 0 0.005-0 0.007-0l2.42-0.169c0.052-0.004 0.096-0.040 0.109-0.091 0.256-0.98 0.644-1.908 1.145-2.762 0.026-0.045 0.021-0.102-0.013-0.142l-1.593-1.833c-0.002-0.001-0.003-0.003-0.004-0.005-0.287-0.29-0.287-0.758 0.002-1.047l2.529-2.53c0.289-0.289 0.757-0.29 1.046-0.002 0.002 0.002 0.003 0.003 0.005 0.004l1.832 1.593c0.039 0.034 0.096 0.039 0.142 0.013 0.854-0.5 1.78-0.889 2.761-1.145 0.051-0.013 0.087-0.057 0.091-0.109l0.169-2.421c0-0.002 0-0.004 0-0.006 0.002-0.408 0.333-0.739 0.742-0.739h3.577c0.409 0 0.74 0.331 0.742 0.739 0 0.002 0 0.004 0 0.006l0.169 2.421c0.004 0.052 0.041 0.096 0.091 0.109 0.98 0.257 1.907 0.645 2.761 1.145 0.045 0.026 0.102 0.021 0.141-0.013l1.832-1.593c0.002-0.001 0.003-0.003 0.005-0.004 0.29-0.287 0.758-0.287 1.047 0.002l2.529 2.53c0.289 0.289 0.29 0.757 0.002 1.047-0.002 0.002-0.003 0.003-0.005 0.005l-1.592 1.833c-0.034 0.039-0.039 0.096-0.013 0.142 0.432 0.738 0.781 1.53 1.032 2.365 0.040 0.132 0.077 0.264 0.112 0.397 0.013 0.051 0.057 0.088 0.11 0.091l2.42 0.169c0.002 0 0.004 0 0.007 0 0.408 0.002 0.738 0.333 0.738 0.742z"></path>
<path  d="M10.881 14.578h2.835v5.57h-2.835z"></path>
<path  d="M9.607 18.352h1.65v1.796h-1.65z"></path>
<path  d="M15.226 12.442h-0.903l-0.27 6.445h1.443z"></path>
<path  d="M14.2 11.845h1.149v0.599h-1.149z"></path>
<path  d="M16.538 15.251v-0.196h3.246v0.196z"></path>
<path  d="M16.538 14.461v-0.196h3.246v0.196z"></path>
<path  d="M16.538 15.252v-0.986h0.203v0.986z"></path>
<path  d="M17.222 15.252v-0.986h0.203v0.986z"></path>
<path  d="M18.041 15.252v-0.986h0.203v0.986z"></path>
<path  d="M18.861 15.252v-0.986h0.203v0.986z"></path>
<path  d="M16.578 14.451l0.101-0.101 0.724 0.725-0.101 0.101z"></path>
<path  d="M17.296 14.451l0.101-0.101 0.724 0.725-0.101 0.101z"></path>
<path  d="M18.112 14.452l0.101-0.101 0.724 0.725-0.101 0.101z"></path>
<path  d="M18.831 14.451l0.101-0.101 0.724 0.725-0.101 0.101z"></path>
<path  d="M18.723 16.275l-1.48 1.241v0.217l1.665-1.375z"></path>
<path  d="M17.096 20.001h1.711v0.164h-1.711z"></path>
<path  d="M17.096 18.485h1.711v0.164h-1.711z"></path>
<path  d="M17.287 17.532h1.52v0.164h-1.52z"></path>
<path  d="M18.857 17.662l-1.874 1.131-0.085-0.14 1.874-1.131z"></path>
<path  d="M18.927 18.625l-1.874 1.131-0.085-0.14 1.874-1.131z"></path>
<path  d="M20.113 13.557h-0.512l-0.153 2.382h0.818z"></path>
<path  d="M16.899 15.153h0.306v3.168h-0.306z"></path>
<path fill="#fff" style="fill: var(--color2, #fff)" d="M12.601 15.128h0.443v0.781h-0.443z"></path>
<path fill="#fff" style="fill: var(--color2, #fff)" d="M12.601 16.425h0.443v0.781h-0.443z"></path>
<path fill="#fff" style="fill: var(--color2, #fff)" d="M12.601 17.79h0.443v0.781h-0.443z"></path>
<path d="M20.772 15.909h-1.614l-0.435 0.366v3.203h-1.48v-1.962l-1.437 1.205-2.934 0.135v1.309h4.37v-0.009h1.48v0.009h3.67v-1.975z"></path>
<path fill="#fff" style="fill: var(--color2, #fff)" d="M6.935 17.661l0.009 0.249-0.712 0.028 0.011 0.252 0.712-0.028 0.009 0.248-0.912 0.036-0.029-0.749z"></path>
<path fill="#fff" style="fill: var(--color2, #fff)" d="M6.352 16.812c0.101 0.005 0.178 0.040 0.231 0.103s0.076 0.15 0.071 0.26l-0.004 0.069 0.303 0.016-0.013 0.247-0.912-0.049 0.017-0.316c0.006-0.115 0.036-0.199 0.089-0.255s0.125-0.080 0.219-0.075zM6.45 17.233l0.003-0.045c0.002-0.037-0.007-0.067-0.027-0.089s-0.049-0.035-0.085-0.037c-0.062-0.003-0.095 0.029-0.099 0.096l-0.003 0.064z"></path>
<path fill="#fff" style="fill: var(--color2, #fff)" d="M6.657 15.828c0.152 0.022 0.262 0.077 0.329 0.163s0.091 0.201 0.069 0.345c-0.021 0.141-0.077 0.244-0.168 0.308s-0.213 0.085-0.365 0.063c-0.15-0.023-0.259-0.078-0.327-0.165s-0.091-0.203-0.069-0.347c0.022-0.144 0.078-0.247 0.168-0.308s0.211-0.082 0.363-0.059zM6.562 16.45c0.175 0.026 0.272-0.022 0.291-0.144 0.009-0.061-0.005-0.11-0.043-0.145s-0.101-0.061-0.192-0.075c-0.090-0.014-0.159-0.009-0.207 0.015s-0.076 0.066-0.085 0.125c-0.019 0.123 0.060 0.197 0.236 0.224z"></path>
<path fill="#fff" style="fill: var(--color2, #fff)" d="M6.251 15.546l0.057-0.212 0.379 0.101c0.041 0.011 0.121 0.036 0.24 0.075l0.001-0.004-0.528-0.52 0.079-0.293 0.883 0.236-0.056 0.211-0.369-0.099c-0.056-0.015-0.139-0.041-0.249-0.077l-0.001 0.005 0.527 0.52-0.079 0.293z"></path>
<path fill="#fff" style="fill: var(--color2, #fff)" d="M6.992 13.921c0.112 0.043 0.155 0.135 0.128 0.277l0.004 0.001c0.037-0.074 0.080-0.123 0.129-0.149s0.103-0.029 0.163-0.007c0.051 0.020 0.091 0.051 0.119 0.095s0.041 0.095 0.041 0.157c0 0.062-0.014 0.13-0.041 0.204-0.052 0.135-0.108 0.238-0.169 0.308l-0.199-0.075c0.029-0.027 0.059-0.063 0.089-0.111s0.052-0.091 0.068-0.133c0.025-0.067 0.036-0.116 0.032-0.149s-0.021-0.055-0.052-0.068c-0.058-0.021-0.111 0.033-0.16 0.164l-0.039 0.101-0.187-0.071 0.033-0.091c0.018-0.045 0.029-0.081 0.035-0.108s0.005-0.049 0-0.064c-0.006-0.016-0.019-0.028-0.040-0.036-0.043-0.016-0.080 0.017-0.112 0.099-0.029 0.077-0.035 0.153-0.017 0.228l-0.195 0.037c-0.013-0.064-0.017-0.125-0.011-0.183s0.022-0.124 0.051-0.199c0.036-0.094 0.084-0.162 0.144-0.203s0.122-0.051 0.185-0.027z"></path>
<path fill="#fff" style="fill: var(--color2, #fff)" d="M6.887 13.627l0.14-0.285c0.054-0.112 0.111-0.187 0.171-0.225s0.124-0.040 0.193-0.005c0.046 0.022 0.081 0.053 0.103 0.093s0.027 0.081 0.017 0.124l0.005 0.003c0.039-0.045 0.080-0.071 0.123-0.079s0.088 0.001 0.137 0.025c0.075 0.037 0.121 0.093 0.136 0.171s-0.001 0.163-0.048 0.259l-0.156 0.32zM7.311 13.559l0.033-0.067c0.015-0.032 0.021-0.059 0.016-0.083s-0.021-0.043-0.048-0.056c-0.045-0.022-0.085 0.001-0.119 0.071l-0.031 0.063zM7.472 13.638l0.172 0.084 0.039-0.077c0.034-0.070 0.022-0.119-0.036-0.148-0.027-0.012-0.053-0.013-0.076-0.001s-0.044 0.033-0.061 0.068z"></path>
<path fill="#fff" style="fill: var(--color2, #fff)" d="M8.127 12.325c0.131 0.080 0.21 0.173 0.239 0.28s0.006 0.221-0.071 0.345c-0.075 0.122-0.166 0.194-0.275 0.217s-0.228-0.007-0.36-0.088c-0.129-0.080-0.207-0.173-0.236-0.279s-0.006-0.222 0.071-0.345c0.077-0.124 0.169-0.197 0.276-0.219s0.225 0.007 0.356 0.088zM7.798 12.86c0.151 0.093 0.259 0.087 0.323-0.017 0.033-0.053 0.039-0.104 0.019-0.152s-0.070-0.096-0.148-0.144c-0.077-0.048-0.142-0.070-0.195-0.067s-0.096 0.031-0.128 0.083c-0.065 0.105-0.022 0.204 0.129 0.297z"></path>
<path fill="#fff" style="fill: var(--color2, #fff)" d="M9.375 11.918l-0.147 0.189-0.224-0.175-0.328 0.421 0.224 0.175-0.148 0.189-0.384-0.299 0.047-0.059c-0.039-0.1-0.095-0.202-0.169-0.304s-0.163-0.201-0.267-0.295l0.373-0.481 0.561 0.437 0.077-0.099zM8.762 11.914l-0.403-0.313-0.1 0.128c0.132 0.124 0.237 0.265 0.316 0.425z"></path>
<path fill="#fff" style="fill: var(--color2, #fff)" d="M8.964 10.896c-0.040 0.043-0.054 0.093-0.041 0.149s0.049 0.115 0.111 0.173c0.127 0.121 0.237 0.133 0.329 0.035 0.027-0.028 0.050-0.060 0.068-0.095s0.034-0.072 0.049-0.111l0.151 0.143c-0.028 0.077-0.075 0.151-0.141 0.221-0.095 0.101-0.197 0.15-0.305 0.148s-0.217-0.056-0.327-0.16c-0.068-0.065-0.116-0.135-0.144-0.209s-0.032-0.151-0.015-0.225c0.018-0.075 0.058-0.145 0.12-0.211 0.069-0.072 0.149-0.126 0.241-0.161l0.091 0.189c-0.035 0.013-0.067 0.029-0.099 0.045s-0.061 0.040-0.088 0.068z"></path>
<path fill="#fff" style="fill: var(--color2, #fff)" d="M10.062 10.853l-0.184 0.164-0.473-0.532-0.167 0.148-0.133-0.151 0.517-0.46 0.133 0.151-0.167 0.148z"></path>
<path fill="#fff" style="fill: var(--color2, #fff)" d="M9.754 9.915l0.256-0.191c0.1-0.075 0.185-0.115 0.255-0.121s0.128 0.022 0.175 0.084c0.030 0.041 0.046 0.084 0.047 0.129s-0.013 0.083-0.041 0.116l0.004 0.005c0.054-0.021 0.102-0.025 0.144-0.012s0.079 0.041 0.112 0.085c0.050 0.067 0.064 0.138 0.043 0.213s-0.075 0.145-0.161 0.209l-0.285 0.213zM10.16 10.048l0.060-0.045c0.028-0.021 0.046-0.043 0.053-0.065s0.002-0.047-0.016-0.071c-0.030-0.040-0.076-0.037-0.139 0.009l-0.056 0.041zM10.268 10.192l0.115 0.153 0.069-0.052c0.062-0.046 0.074-0.095 0.036-0.147-0.019-0.024-0.041-0.036-0.068-0.037s-0.054 0.009-0.085 0.033z"></path>
<path fill="#fff" style="fill: var(--color2, #fff)" d="M11.428 9.872l-0.46 0.288-0.485-0.775 0.46-0.288 0.105 0.168-0.251 0.157 0.076 0.121 0.232-0.147 0.105 0.169-0.232 0.147 0.092 0.145 0.251-0.157z"></path>
<path fill="#fff" style="fill: var(--color2, #fff)" d="M12.228 9.454l-0.221 0.113-0.169-0.332-0.255 0.129 0.169 0.332-0.221 0.112-0.415-0.813 0.221-0.112 0.155 0.301 0.255-0.129-0.155-0.301 0.221-0.113z"></path>
<path fill="#fff" style="fill: var(--color2, #fff)" d="M13.098 9.111l-0.232 0.088-0.133-0.347-0.267 0.104 0.133 0.347-0.232 0.088-0.328-0.852 0.232-0.088 0.121 0.316 0.267-0.104-0.121-0.316 0.232-0.088z"></path>
<path fill="#fff" style="fill: var(--color2, #fff)" d="M13.948 8.399c0.040 0.149 0.034 0.271-0.019 0.368s-0.149 0.164-0.289 0.201c-0.139 0.037-0.256 0.027-0.351-0.031s-0.161-0.162-0.2-0.311c-0.040-0.147-0.033-0.268 0.020-0.365s0.15-0.164 0.289-0.201c0.14-0.038 0.257-0.028 0.349 0.029s0.16 0.161 0.2 0.309zM13.342 8.562c0.045 0.171 0.127 0.24 0.245 0.208 0.060-0.016 0.099-0.048 0.117-0.097s0.016-0.119-0.008-0.207c-0.023-0.088-0.055-0.149-0.096-0.183s-0.091-0.043-0.149-0.027c-0.119 0.032-0.156 0.134-0.109 0.305z"></path>
<path fill="#fff" style="fill: var(--color2, #fff)" d="M14.082 8.596l-0.036-0.191 0.347-0.065 0.036 0.191z"></path>
<path fill="#fff" style="fill: var(--color2, #fff)" d="M14.955 8.706l-0.251-0.637h-0.007c0.019 0.111 0.032 0.197 0.039 0.259l0.040 0.396-0.217 0.023-0.091-0.909 0.327-0.033 0.255 0.627 0.004-0.001 0.123-0.664 0.328-0.032 0.091 0.909-0.227 0.023-0.040-0.399c-0.002-0.020-0.004-0.043-0.005-0.068s-0.005-0.089-0.011-0.189h-0.005l-0.119 0.673z"></path>
<path fill="#fff" style="fill: var(--color2, #fff)" d="M16.603 8.2c-0.004 0.154-0.044 0.27-0.12 0.348s-0.188 0.116-0.333 0.113c-0.143-0.003-0.253-0.045-0.328-0.127s-0.11-0.199-0.107-0.353c0.003-0.152 0.043-0.267 0.12-0.345s0.188-0.117 0.333-0.115c0.146 0.003 0.255 0.045 0.328 0.127s0.109 0.198 0.107 0.352zM15.975 8.188c-0.004 0.177 0.056 0.266 0.179 0.268 0.062 0.002 0.109-0.018 0.14-0.060s0.047-0.11 0.049-0.201c0.002-0.091-0.013-0.158-0.043-0.201s-0.076-0.067-0.136-0.069c-0.124-0.002-0.187 0.086-0.189 0.264z"></path>
<path fill="#fff" style="fill: var(--color2, #fff)" d="M17.488 8.767l-0.247-0.031 0.047-0.369-0.284-0.036-0.047 0.369-0.247-0.031 0.113-0.907 0.247 0.031-0.041 0.336 0.284 0.036 0.041-0.336 0.247 0.031z"></path>
<path fill="#fff" style="fill: var(--color2, #fff)" d="M18.035 8.886l-0.24-0.053 0.153-0.696-0.219-0.048 0.043-0.196 0.676 0.148-0.043 0.196-0.217-0.047z"></path>
<path fill="#fff" style="fill: var(--color2, #fff)" d="M18.877 9.125l0.008-0.177-0.284-0.089-0.095 0.149-0.259-0.081 0.561-0.785 0.313 0.099 0.012 0.965zM18.897 8.739l0.008-0.156c0.001-0.034 0.003-0.078 0.007-0.132s0.007-0.094 0.009-0.116c-0.010 0.018-0.028 0.049-0.053 0.092s-0.077 0.127-0.156 0.253z"></path>
<path fill="#fff" style="fill: var(--color2, #fff)" d="M19.545 8.857l-0.063-0.507 0.241 0.108 0.049 0.509 0.181-0.404 0.219 0.097-0.181 0.404 0.413-0.299 0.243 0.109-0.424 0.288 0.069 0.553-0.249-0.112-0.055-0.532-0.191 0.421-0.219-0.097 0.191-0.421-0.436 0.311-0.249-0.113z"></path>
<path fill="#fff" style="fill: var(--color2, #fff)" d="M20.989 10.156l-0.212-0.128 0.192-0.319-0.245-0.148-0.192 0.319-0.212-0.129 0.473-0.781 0.212 0.129-0.176 0.289 0.245 0.148 0.176-0.289 0.212 0.128z"></path>
<path fill="#fff" style="fill: var(--color2, #fff)" d="M21.565 10.581l0.065-0.164-0.237-0.179-0.14 0.108-0.216-0.163 0.791-0.553 0.263 0.197-0.311 0.915zM21.711 10.224l0.060-0.144c0.013-0.032 0.030-0.073 0.051-0.123s0.037-0.086 0.048-0.107c-0.016 0.015-0.043 0.039-0.081 0.071s-0.115 0.094-0.232 0.187z"></path>
<path fill="#fff" style="fill: var(--color2, #fff)" d="M22.302 10.774l-0.357 0.124-0.207-0.189 0.455-0.127c-0.016-0.050-0.019-0.099-0.009-0.147s0.032-0.091 0.068-0.131c0.121-0.132 0.273-0.115 0.457 0.053l0.224 0.204-0.616 0.675-0.183-0.167 0.224-0.245zM22.623 10.533l-0.039-0.036c-0.029-0.027-0.057-0.042-0.084-0.045s-0.051 0.007-0.072 0.031c-0.026 0.028-0.037 0.056-0.035 0.085s0.022 0.058 0.055 0.088l0.035 0.032z"></path>
<path fill="#fff" style="fill: var(--color2, #fff)" d="M23.161 12.186l-0.18-0.212 0.177-0.507-0.353 0.299-0.16-0.189 0.697-0.591 0.16 0.189-0.339 0.287 0.508-0.087 0.176 0.207-0.516 0.068z"></path>
<path fill="#fff" style="fill: var(--color2, #fff)" d="M24.051 12.67c-0.126 0.087-0.244 0.122-0.352 0.105s-0.204-0.084-0.287-0.204c-0.081-0.118-0.11-0.232-0.087-0.34s0.098-0.206 0.224-0.293c0.125-0.086 0.243-0.12 0.352-0.103s0.205 0.085 0.287 0.205c0.083 0.12 0.112 0.233 0.088 0.339s-0.098 0.203-0.225 0.291zM23.695 12.153c-0.146 0.1-0.184 0.201-0.115 0.303 0.035 0.051 0.079 0.076 0.132 0.077s0.117-0.025 0.192-0.076c0.075-0.052 0.122-0.102 0.14-0.152s0.010-0.1-0.024-0.149c-0.070-0.102-0.179-0.103-0.325-0.003z"></path>
<path fill="#fff" style="fill: var(--color2, #fff)" d="M23.921 13.377l0.496-0.472-0.003-0.005c-0.094 0.060-0.169 0.105-0.224 0.135l-0.352 0.184-0.103-0.193 0.809-0.424 0.153 0.291-0.485 0.471 0.001 0.004 0.661-0.136 0.153 0.292-0.809 0.424-0.105-0.201 0.355-0.185c0.019-0.011 0.039-0.022 0.061-0.033s0.080-0.037 0.171-0.079l-0.003-0.005-0.668 0.143z"></path>
<path fill="#fff" style="fill: var(--color2, #fff)" d="M24.542 14.782l-0.089-0.232 0.664-0.256-0.091-0.235-0.664 0.256-0.089-0.232 0.852-0.328 0.269 0.699z"></path>
<path fill="#fff" style="fill: var(--color2, #fff)" d="M24.739 15.468l0.152-0.089-0.080-0.287-0.176 0.001-0.072-0.261 0.964 0.044 0.087 0.317-0.804 0.535zM25.072 15.276l0.136-0.079c0.029-0.017 0.067-0.039 0.115-0.067s0.081-0.045 0.103-0.056c-0.022 0.003-0.058 0.005-0.108 0.007s-0.148 0.005-0.296 0.008z"></path>
<path fill="#fff" style="fill: var(--color2, #fff)" d="M24.95 16.554l-0.041-0.245 0.367-0.063-0.048-0.283-0.367 0.063-0.043-0.244 0.9-0.153 0.043 0.244-0.333 0.057 0.048 0.283 0.333-0.057 0.041 0.245z"></path>
<path fill="#fff" style="fill: var(--color2, #fff)" d="M25.881 16.648l0.013 0.22-0.392 0.024c-0.042 0.002-0.125 0.003-0.249 0.005v0.004l0.663 0.325 0.019 0.304-0.912 0.055-0.013-0.219 0.381-0.023c0.058-0.004 0.145-0.005 0.261-0.004v-0.005l-0.664-0.329-0.019-0.303z"></path>
<path fill="#fff" style="fill: var(--color2, #fff)" d="M25.336 18.101l-0.325-0.195 0.012-0.28 0.389 0.268c0.028-0.045 0.064-0.080 0.107-0.103s0.091-0.033 0.144-0.031c0.179 0.008 0.263 0.136 0.252 0.385l-0.013 0.301-0.912-0.040 0.011-0.245 0.332 0.015zM25.725 18.193l0.003-0.053c0.002-0.039-0.005-0.070-0.019-0.093s-0.037-0.036-0.069-0.037c-0.037-0.001-0.066 0.009-0.087 0.029s-0.030 0.055-0.032 0.1l-0.003 0.047z"></path>
<path d="M3.213 22.948h3.405c0.038 0 0.071 0.014 0.1 0.043s0.043 0.061 0.043 0.1v3.404c0 0.039-0.014 0.073-0.043 0.101s-0.062 0.041-0.1 0.041h-1.033c-0.038 0-0.072-0.014-0.1-0.041s-0.043-0.062-0.043-0.101v-2.408h-1.053v2.408c0 0.039-0.014 0.073-0.043 0.101s-0.062 0.041-0.1 0.041h-1.033c-0.038 0-0.072-0.013-0.1-0.039s-0.043-0.061-0.043-0.104v-3.404c0-0.039 0.014-0.072 0.043-0.1s0.062-0.043 0.1-0.043z"></path>
<path d="M7.962 22.948h1.971c0.499 0 0.895 0.121 1.187 0.364s0.437 0.553 0.437 0.932c0 0.38-0.123 0.681-0.369 0.904s-0.665 0.335-1.255 0.335h-0.696v1.012c0 0.039-0.014 0.073-0.043 0.101s-0.061 0.041-0.099 0.041h-1.133c-0.039 0-0.073-0.014-0.101-0.041s-0.041-0.062-0.041-0.101v-3.404c0-0.039 0.014-0.072 0.041-0.1s0.062-0.043 0.101-0.043zM9.242 23.928v0.58h0.669c0.081 0 0.147-0.024 0.197-0.073s0.077-0.118 0.077-0.205c0-0.088-0.025-0.16-0.075-0.216s-0.116-0.085-0.2-0.085z"></path>
<path d="M15.836 24.47v0.644c0 0.362-0.088 0.664-0.264 0.907s-0.406 0.414-0.691 0.516c-0.285 0.102-0.62 0.153-1.007 0.153s-0.722-0.051-1.007-0.153c-0.285-0.102-0.515-0.274-0.691-0.516s-0.263-0.548-0.263-0.917v-0.623c0-0.531 0.182-0.927 0.545-1.191s0.835-0.396 1.415-0.396c0.579 0 1.051 0.132 1.415 0.396s0.547 0.657 0.547 1.18zM13.337 24.37v0.844c0 0.144 0.048 0.255 0.144 0.332s0.228 0.116 0.393 0.116 0.296-0.039 0.392-0.119c0.097-0.079 0.145-0.191 0.145-0.335v-0.833c0-0.144-0.049-0.255-0.145-0.335s-0.227-0.119-0.392-0.119-0.297 0.039-0.393 0.116c-0.096 0.077-0.144 0.188-0.144 0.332z"></path>
<path d="M17.96 25.609h2.103c0.038 0 0.071 0.014 0.1 0.043s0.043 0.061 0.043 0.1v0.743c0 0.039-0.014 0.073-0.043 0.101s-0.062 0.041-0.1 0.041h-3.331c-0.039 0-0.073-0.014-0.101-0.041s-0.041-0.062-0.041-0.101v-3.404c0-0.039 0.014-0.072 0.041-0.1s0.062-0.043 0.101-0.043h3.277c0.039 0 0.072 0.014 0.1 0.043s0.043 0.061 0.043 0.1v0.743c0 0.038-0.014 0.072-0.043 0.1s-0.061 0.043-0.1 0.043h-2.049v0.332h1.76c0.038 0 0.071 0.014 0.1 0.043s0.043 0.061 0.043 0.1v0.684c0 0.039-0.014 0.073-0.043 0.101s-0.062 0.041-0.1 0.041h-1.76z"></path>
<path d="M25.011 26.453c0.013 0.021 0.020 0.045 0.020 0.073s-0.012 0.054-0.035 0.077c-0.022 0.022-0.049 0.033-0.081 0.033h-1.359c-0.081 0-0.145-0.028-0.191-0.084l-0.917-1.133v1.075c0 0.039-0.014 0.073-0.043 0.101s-0.061 0.041-0.099 0.041h-1.087c-0.038 0-0.072-0.014-0.1-0.041s-0.041-0.062-0.041-0.101v-3.404c0-0.039 0.014-0.072 0.041-0.1s0.062-0.043 0.1-0.043h1.087c0.038 0 0.071 0.014 0.099 0.043s0.043 0.061 0.043 0.1v0.991l0.833-1.044c0.052-0.059 0.117-0.089 0.195-0.089h1.271c0.032 0 0.059 0.012 0.081 0.035s0.035 0.049 0.035 0.079c0 0.029-0.009 0.055-0.027 0.076l-1.249 1.524z"></path>
<path d="M25.495 22.948h3.637c0.038 0 0.071 0.014 0.1 0.043s0.043 0.061 0.043 0.1v0.848c0 0.039-0.014 0.073-0.043 0.101s-0.062 0.041-0.1 0.041h-1.133v2.413c0 0.039-0.014 0.073-0.043 0.101s-0.061 0.041-0.1 0.041h-1.085c-0.039 0-0.073-0.014-0.101-0.041s-0.041-0.062-0.041-0.101v-2.413h-1.133c-0.038 0-0.072-0.014-0.1-0.041s-0.041-0.062-0.041-0.101v-0.848c0-0.039 0.014-0.072 0.041-0.1s0.062-0.043 0.1-0.043z"></path>
</symbol>
<symbol id="cross" viewBox="0 0 24 24">
<path d="M18.984 6.422l-5.578 5.578 5.578 5.578-1.406 1.406-5.578-5.578-5.578 5.578-1.406-1.406 5.578-5.578-5.578-5.578 1.406-1.406 5.578 5.578 5.578-5.578z"></path>
</symbol>
<symbol id="menu" viewBox="0 0 24 24">
<path d="M3 5.016h18v1.969h-18v-1.969zM3 11.016v-2.016h18v2.016h-18zM3 18.984v-1.969h18v1.969h-18zM3 15v-2.016h18v2.016h-18z"></path>
</symbol>
<symbol id="send" viewBox="0 0 24 24">
<path d="M2.016 21v-6.984l15-2.016-15-2.016v-6.984l21 9z"></path>
</symbol>
<symbol id="call" viewBox="0 0 24 24">
<path d="M20.016 15.375q0.422 0 0.703 0.281t0.281 0.703v3.469q0 1.172-0.984 1.172-6.984 0-12-5.016t-5.016-12q0-0.984 1.172-0.984h3.469q0.422 0 0.703 0.281t0.281 0.703q0 1.828 0.563 3.516 0.188 0.609-0.234 1.031l-1.922 1.688q2.156 4.5 6.891 6.797l1.547-1.969q0.281-0.281 0.703-0.281 0.234 0 0.328 0.047 1.688 0.563 3.516 0.563z"></path>
</symbol>
<symbol id="email" viewBox="0 0 24 24">
<path d="M20.016 8.016v-2.016l-8.016 5.016-8.016-5.016v2.016l8.016 4.969zM20.016 3.984q0.797 0 1.383 0.609t0.586 1.406v12q0 0.797-0.586 1.406t-1.383 0.609h-16.031q-0.797 0-1.383-0.609t-0.586-1.406v-12q0-0.797 0.586-1.406t1.383-0.609h16.031z"></path>
</symbol>
<symbol id="customer" viewBox="0 0 32 32">
<path d="M14.040 1.317c-0.514 0.257-0.708 0.643-0.849 0.963s-0.234 0.578-0.484 0.864c-0.25 0.286-0.673 0.614-1.513 0.952s-1.373 0.394-1.753 0.361c-0.38-0.033-0.629-0.156-0.953-0.288-0.393-0.161-0.778-0.259-1.28-0.103s-1.013 0.522-1.724 1.218c-0.711 0.696-1.089 1.199-1.255 1.697-0.179 0.537-0.042 0.956 0.085 1.281s0.246 0.57 0.272 0.948c0.026 0.378-0.041 0.908-0.395 1.738s-0.688 1.247-0.981 1.495c-0.294 0.248-0.565 0.342-0.894 0.491s-0.715 0.366-0.971 0.89c-0.237 0.485-0.338 1.134-0.347 2.17-0 0.001 0.001 0.002 0.001 0.004s-0.001 0.002-0.001 0.004c0.008 1.036 0.109 1.685 0.347 2.17 0.256 0.523 0.642 0.74 0.971 0.89s0.6 0.243 0.894 0.491c0.294 0.248 0.628 0.665 0.981 1.495s0.421 1.36 0.395 1.738c-0.026 0.378-0.145 0.623-0.272 0.948s-0.264 0.744-0.085 1.281c0.166 0.498 0.544 1.002 1.255 1.697s1.222 1.062 1.724 1.218c0.502 0.156 0.887 0.058 1.28-0.103 0.325-0.132 0.573-0.255 0.953-0.288s0.913 0.023 1.753 0.361c0.84 0.338 1.263 0.666 1.513 0.952s0.343 0.544 0.484 0.864c0.141 0.32 0.334 0.706 0.849 0.963 0.448 0.224 1.044 0.316 1.96 0.317 0.916-0.001 1.512-0.093 1.96-0.317 0.514-0.257 0.708-0.643 0.849-0.963s0.234-0.578 0.484-0.864c0.25-0.286 0.673-0.614 1.513-0.952s1.373-0.394 1.753-0.361c0.38 0.033 0.629 0.156 0.953 0.288 0.393 0.161 0.778 0.259 1.28 0.103s1.013-0.522 1.724-1.218c0.711-0.696 1.089-1.199 1.255-1.697 0.179-0.537 0.042-0.956-0.085-1.281s-0.246-0.57-0.272-0.948c-0.026-0.378 0.041-0.908 0.395-1.738s0.688-1.247 0.981-1.495c0.294-0.248 0.565-0.342 0.894-0.491s0.715-0.366 0.971-0.89c0.237-0.485 0.338-1.134 0.347-2.174-0.009-1.040-0.109-1.689-0.347-2.174-0.256-0.523-0.642-0.74-0.971-0.89s-0.6-0.243-0.894-0.491c-0.294-0.248-0.628-0.665-0.981-1.495s-0.421-1.36-0.395-1.738c0.026-0.378 0.145-0.623 0.272-0.948s0.264-0.744 0.085-1.281c-0.166-0.498-0.544-1.002-1.255-1.697s-1.222-1.062-1.724-1.218c-0.502-0.156-0.887-0.058-1.28 0.103-0.325 0.132-0.573 0.255-0.953 0.288s-0.913-0.023-1.753-0.361c-0.84-0.338-1.263-0.666-1.513-0.952s-0.343-0.544-0.484-0.864c-0.141-0.32-0.334-0.706-0.849-0.963-0.448-0.224-1.044-0.316-1.96-0.317-0.916 0.001-1.512 0.093-1.96 0.317zM16 2.003c0.841 0.003 1.302 0.101 1.514 0.207 0.181 0.090 0.261 0.203 0.38 0.473s0.274 0.691 0.646 1.118c0.373 0.427 0.951 0.846 1.893 1.226s1.649 0.478 2.215 0.429c0.566-0.049 0.97-0.247 1.244-0.358 0.214-0.087 0.367-0.148 0.605-0.074 0.231 0.062 0.658 0.333 1.317 0.979s0.93 1.061 1.008 1.296c0.078 0.235 0.002 0.426-0.066 0.602-0.107 0.275-0.3 0.678-0.34 1.243s0.072 1.268 0.469 2.2c0.397 0.932 0.826 1.502 1.259 1.867s0.854 0.517 1.122 0.639c0.268 0.122 0.391 0.213 0.491 0.417 0.127 0.259 0.21 0.726 0.226 1.235l0.018 0.5c0 0 0 0.5-0.018 0.5-0.016 0.51-0.099 0.976-0.226 1.235-0.1 0.204-0.223 0.295-0.491 0.417s-0.689 0.273-1.122 0.639c-0.433 0.366-0.862 0.935-1.259 1.867s-0.508 1.635-0.469 2.2c0.040 0.565 0.232 0.969 0.34 1.243 0.069 0.176 0.144 0.367 0.066 0.602s-0.348 0.65-1.008 1.296c-0.66 0.646-1.087 0.917-1.317 0.979-0.238 0.074-0.392 0.013-0.605-0.074-0.274-0.112-0.679-0.309-1.244-0.358s-1.273 0.050-2.215 0.429c-0.942 0.379-1.52 0.798-1.893 1.226s-0.527 0.848-0.646 1.118c-0.119 0.27-0.199 0.382-0.38 0.473-0.212 0.106-0.673 0.204-1.514 0.207-0.841-0.003-1.302-0.101-1.514-0.207-0.181-0.090-0.261-0.203-0.38-0.473s-0.274-0.691-0.646-1.118c-0.373-0.427-0.951-0.846-1.893-1.226s-1.649-0.478-2.215-0.429c-0.566 0.049-0.97 0.247-1.244 0.358-0.214 0.087-0.367 0.148-0.605 0.074-0.231-0.062-0.658-0.333-1.317-0.979s-0.93-1.061-1.008-1.296c-0.078-0.235-0.002-0.426 0.066-0.602 0.107-0.275 0.3-0.678 0.34-1.243s-0.072-1.268-0.469-2.2c-0.397-0.932-0.826-1.502-1.259-1.867s-0.854-0.517-1.122-0.639c-0.268-0.122-0.391-0.213-0.491-0.417-0.127-0.259-0.21-0.726-0.226-1.235l-0.018-0.504 0.018-0.496c0.016-0.51 0.099-0.976 0.226-1.235 0.1-0.204 0.223-0.295 0.491-0.417s0.689-0.273 1.122-0.639c0.433-0.366 0.862-0.935 1.259-1.867s0.508-1.635 0.469-2.2c-0.040-0.565-0.232-0.969-0.34-1.243-0.069-0.176-0.144-0.367-0.066-0.602s0.348-0.65 1.008-1.296c0.66-0.646 1.087-0.917 1.317-0.979 0.238-0.074 0.391-0.013 0.605 0.074 0.274 0.112 0.679 0.309 1.244 0.358s1.273-0.050 2.215-0.429c0.942-0.379 1.52-0.798 1.893-1.226s0.528-0.848 0.646-1.118c0.119-0.27 0.199-0.382 0.38-0.473 0.212-0.106 0.673-0.204 1.514-0.207zM16 6c-5.534 0-9.998 4.483-9.998 10s4.473 9.999 9.998 9.999c5.525 0 9.999-4.482 9.999-9.999s-4.465-10-9.999-10zM16 7c3.729 0 6.93 2.266 8.295 5.501-0.446 0-0.903 0-1.345 0-0.256 0.026-0.45 0.241-0.45 0.498v0.503c-1.387 0-2.889-0.914-4.976-1.001-0.251-0.010-0.513-0.025-0.765-0.013-0.758 0.018-1.389 0.221-2.148 0.848-0.127-0.040-0.187-0.058-0.427-0.122-0.179-0.048-0.802-0.216-1.186-0.215-0.582 0.001-1.331 0.134-2.081 0.259-0.509 0.085-1.012 0.164-1.417 0.208v-0.467c-0.001-0.277-0.226-0.5-0.503-0.498h-1.292c1.365-3.235 4.565-5.501 8.294-5.501zM16 8.501c-0.291 0.005-0.5 0.221-0.5 0.498v1c0 0.333 0.25 0.501 0.5 0.501s0.5-0.168 0.5-0.501v-1c0-0.277-0.209-0.493-0.5-0.498zM12.938 10.644l0.709 0.705c0.493 0.459 1.165-0.232 0.709-0.705l-0.709-0.709c-0.094-0.097-0.216-0.146-0.351-0.146-0.452-0.003-0.67 0.545-0.358 0.854zM18.354 9.935l-0.709 0.709c-0.456 0.473 0.216 1.164 0.709 0.705l0.709-0.705c0.312-0.31 0.094-0.858-0.358-0.854-0.135 0-0.256 0.049-0.351 0.146zM17.484 13.498c1.854 0.077 3.456 1.004 5.016 1.004v3.499c-1.081 0.019-1.754 0.092-3.286 0.872l-2.277-2.632c0.251-0.458-0.279-0.946-0.715-0.658-0.712 0.456-1.461 0.875-2.188 1.296-0.303 0.175-0.639 0.257-0.867 0.021-0.214-0.221-0.227-0.582 0.007-0.808l1.908-1.835c0.668-0.648 1.261-0.773 1.766-0.774 0.198-0.001 0.387 0.004 0.638 0.015zM13.761 14.139l-1.278 1.23c-0.623 0.6-0.649 1.597-0.036 2.229 0.629 0.648 1.55 0.548 2.181 0.085 0.538-0.3 1.045-0.589 1.493-0.86l2.205 2.555c-0.603 0.373-1.209 0.757-1.73 1.040-0.675 0.366-1.223 0.584-1.595 0.584-0.208 0-0.569-0.136-0.985-0.395s-0.886-0.627-1.373-1.004c-0.975-0.753-2.084-1.602-3.141-1.602v-3.526c0.483-0.045 1.030-0.14 1.579-0.231 0.75-0.125 1.501-0.242 1.919-0.243 0.099-0 0.32 0.027 0.762 0.139zM9.501 19.001c0.671 0 1.564 0.648 2.531 1.395 0.484 0.374 0.969 0.756 1.454 1.059s0.997 0.547 1.514 0.547c0.621 0 1.343-0.307 2.070-0.701 0.723-0.392 1.491-0.892 2.266-1.363 1.571-0.823 2.098-0.928 3.164-0.935v0.496c-0.001 0.276 0.222 0.501 0.498 0.502h1.053c-1.476 2.962-4.528 4.998-8.051 4.998s-6.574-2.037-8.050-4.998h1.048c0.278 0.002 0.504-0.224 0.503-0.502z"></path>
</symbol>
<symbol id="innovation" viewBox="0 0 32 32">
<path d="M14.158 1.299c-0.492 0.246-0.673 0.612-0.805 0.912s-0.215 0.535-0.443 0.797c-0.229 0.262-0.62 0.566-1.398 0.879s-1.27 0.366-1.617 0.336c-0.348-0.030-0.57-0.146-0.874-0.27-0.365-0.149-0.742-0.244-1.219-0.096s-0.953 0.494-1.616 1.144c-0.663 0.649-1.020 1.118-1.178 1.591-0.166 0.498-0.041 0.913 0.078 1.218s0.23 0.529 0.254 0.875c0.024 0.345-0.038 0.833-0.365 1.603s-0.636 1.149-0.904 1.376c-0.269 0.227-0.515 0.314-0.823 0.454-0.371 0.169-0.697 0.386-0.922 0.846s-0.317 1.066-0.325 2.037c0.008 0.971 0.1 1.578 0.325 2.037 0.246 0.502 0.614 0.705 0.922 0.846s0.554 0.227 0.823 0.454c0.269 0.227 0.577 0.607 0.904 1.376s0.389 1.257 0.365 1.603c-0.024 0.346-0.135 0.57-0.254 0.875-0.135 0.345-0.236 0.745-0.078 1.218 0.149 0.447 0.514 0.941 1.178 1.591s1.168 1.004 1.616 1.144c0.522 0.162 0.915 0.028 1.219-0.096s0.527-0.239 0.874-0.27c0.331-0.029 0.839 0.023 1.617 0.336 0.442 0.178 0.755 0.354 0.988 0.52v0.868c-0 0.822 0.663 1.499 1.499 1.499v0.502c0 0.822 0.667 1.498 1.503 1.498h0.996c0.836 0 1.503-0.676 1.503-1.498v-0.502c0.836 0 1.499-0.677 1.499-1.499v-0.868c0.234-0.166 0.546-0.342 0.988-0.52 0.778-0.313 1.286-0.365 1.617-0.336 0.348 0.030 0.57 0.146 0.874 0.27s0.697 0.258 1.219 0.096c0.448-0.139 0.953-0.494 1.616-1.144s1.029-1.143 1.178-1.591c0.157-0.473 0.057-0.873-0.078-1.218-0.119-0.305-0.23-0.529-0.254-0.875s0.038-0.833 0.365-1.603c0.328-0.769 0.636-1.149 0.904-1.376s0.515-0.314 0.823-0.454c0.308-0.14 0.676-0.344 0.922-0.846 0.225-0.46 0.317-1.066 0.325-2.037-0.008-0.971-0.1-1.578-0.325-2.037s-0.551-0.677-0.922-0.846c-0.308-0.14-0.554-0.227-0.823-0.454s-0.577-0.607-0.904-1.376c-0.328-0.769-0.389-1.257-0.365-1.603s0.135-0.57 0.254-0.875c0.119-0.305 0.244-0.719 0.078-1.218-0.157-0.473-0.514-0.941-1.178-1.591s-1.14-0.995-1.616-1.144c-0.476-0.148-0.854-0.053-1.219 0.096-0.304 0.124-0.526 0.239-0.874 0.27s-0.839-0.023-1.617-0.336c-0.778-0.313-1.17-0.617-1.398-0.879s-0.311-0.497-0.443-0.797c-0.132-0.3-0.313-0.666-0.805-0.912-0.405-0.202-0.937-0.29-1.842-0.299-0.905 0.009-1.437 0.096-1.842 0.299zM17.395 2.192c0.158 0.079 0.23 0.171 0.34 0.421s0.25 0.649 0.602 1.052c0.351 0.403 0.898 0.794 1.778 1.148s1.542 0.451 2.075 0.405c0.533-0.046 0.916-0.236 1.17-0.339 0.19-0.078 0.325-0.133 0.538-0.066s0.602 0.301 1.215 0.9c0.612 0.6 0.853 0.965 0.93 1.195 0.055 0.167 0.037 0.281-0.063 0.535s-0.28 0.637-0.317 1.17c-0.037 0.533 0.068 1.193 0.439 2.063s0.777 1.406 1.185 1.75c0.408 0.344 0.804 0.485 1.052 0.598 0.172 0.078 0.325 0.151 0.436 0.376s0.218 0.704 0.226 1.599c-0.008 0.895-0.109 1.361-0.226 1.599-0.11 0.225-0.267 0.299-0.436 0.376-0.247 0.113-0.644 0.253-1.052 0.598s-0.814 0.879-1.185 1.75c-0.371 0.871-0.477 1.531-0.439 2.063s0.218 0.916 0.317 1.17c0.070 0.178 0.132 0.326 0.063 0.535s-0.317 0.596-0.93 1.195c-0.612 0.6-0.985 0.833-1.215 0.904-0.168 0.052-0.285 0.033-0.538-0.070s-0.637-0.293-1.17-0.339c-0.533-0.046-1.195 0.051-2.075 0.405-0.23 0.092-0.429 0.188-0.615 0.284v-0.97c0.661-0.001 0.66-0.987 0.008-1.001 0.031-0.34 0.208-0.705 0.522-1.141 0.348-0.481 0.846-1.022 1.358-1.649 1.024-1.254 2.111-2.875 2.111-5.264 0-4.069-3.352-7.374-7.5-7.446-4.148 0.072-7.5 3.377-7.5 7.446 0 2.389 1.087 4.010 2.111 5.264 0.512 0.627 1.011 1.168 1.358 1.649 0.314 0.435 0.487 0.803 0.519 1.143-0.654 0.013-0.651 0.999 0.012 0.999v0.97c-0.186-0.097-0.386-0.192-0.615-0.284-0.88-0.354-1.542-0.451-2.075-0.405s-0.916 0.235-1.17 0.339c-0.253 0.103-0.37 0.123-0.538 0.070-0.23-0.072-0.602-0.305-1.215-0.904s-0.86-0.986-0.93-1.195c-0.070-0.209-0.007-0.358 0.063-0.535 0.099-0.254 0.28-0.637 0.317-1.17s-0.068-1.192-0.439-2.063c-0.371-0.871-0.777-1.406-1.185-1.75s-0.804-0.485-1.052-0.598c-0.168-0.077-0.325-0.151-0.436-0.376-0.116-0.238-0.218-0.704-0.226-1.599 0.008-0.895 0.116-1.374 0.226-1.599s0.263-0.298 0.436-0.376c0.247-0.113 0.644-0.253 1.052-0.598s0.814-0.879 1.185-1.75c0.371-0.871 0.477-1.531 0.439-2.063s-0.218-0.916-0.317-1.17c-0.099-0.254-0.118-0.369-0.063-0.535 0.077-0.23 0.317-0.596 0.93-1.195s1.002-0.834 1.215-0.9c0.213-0.066 0.348-0.011 0.538 0.066 0.253 0.103 0.637 0.293 1.17 0.339s1.195-0.051 2.075-0.405c0.88-0.354 1.427-0.746 1.778-1.148s0.492-0.802 0.602-1.052c0.11-0.25 0.182-0.342 0.34-0.421 0.189-0.095 0.616-0.186 1.396-0.188 0.78 0.003 1.206 0.094 1.396 0.188zM16 9.005c3.613 0.072 6.5 2.927 6.5 6.441 0 2.027-0.91 3.438-1.886 4.633-0.488 0.597-0.993 1.137-1.395 1.693-0.38 0.526-0.684 1.089-0.717 1.728h-2.004v-2.749l1.606-1.603c0.329-0.316 0.098-0.873-0.358-0.862-0.133 0.003-0.259 0.058-0.351 0.154l-1.396 1.391-1.396-1.391c-0.092-0.096-0.218-0.151-0.351-0.154-0.457-0.010-0.688 0.546-0.358 0.862l1.603 1.603v2.749h-2.004c-0.032-0.639-0.333-1.202-0.713-1.728-0.402-0.556-0.908-1.096-1.396-1.693-0.976-1.194-1.886-2.606-1.886-4.633 0-3.515 2.887-6.37 6.5-6.441zM16 10.323c-0.667 0-0.667 1.001 0 1.001 1.49 0 2.866 0.79 3.61 2.074 0.369 0.59 1.189 0.046 0.863-0.502-0.923-1.592-2.629-2.573-4.474-2.573zM21.002 14.5c-0.276-0.001-0.5 0.221-0.502 0.497s0.22 0.5 0.495 0.503c0.276 0.003 0.502-0.218 0.505-0.497 0-0.278-0.223-0.502-0.498-0.503z"></path>
</symbol>
<symbol id="quality" viewBox="0 0 32 32">
<path d="M20.2 10.285c-0.068-0.201-0.255-0.343-0.475-0.345h-2.485l-0.765-2.36c-0.068-0.201-0.255-0.344-0.475-0.344s-0.407 0.143-0.474 0.34l-0.001 0.004-0.765 2.36h-2.485c-0.22 0.002-0.407 0.144-0.474 0.341l-0.001 0.004c-0.016 0.046-0.025 0.1-0.025 0.155 0 0.167 0.082 0.314 0.208 0.404l0.002 0.001 2.005 1.46-0.765 2.36c-0.016 0.047-0.025 0.1-0.025 0.156 0 0.165 0.080 0.312 0.204 0.403l0.001 0.001c0.082 0.059 0.184 0.094 0.295 0.094s0.213-0.035 0.297-0.095l-0.002 0.001 2.005-1.46 2.005 1.46c0.083 0.057 0.184 0.092 0.294 0.095h0.001c0.111-0.001 0.213-0.036 0.297-0.096l-0.002 0.001c0.125-0.092 0.205-0.239 0.205-0.404 0-0.056-0.009-0.11-0.026-0.16l0.001 0.004-0.765-2.36 2.005-1.46c0.128-0.091 0.21-0.238 0.21-0.405 0-0.055-0.009-0.109-0.026-0.159l0.001 0.004zM17.13 11.71c-0.127 0.092-0.209 0.241-0.209 0.408 0 0.054 0.009 0.107 0.025 0.156l-0.001-0.004 0.405 1.24-1.055-0.77c-0.082-0.059-0.184-0.095-0.295-0.095s-0.213 0.036-0.296 0.096l0.001-0.001-1.055 0.77 0.405-1.24c0.015-0.045 0.024-0.098 0.024-0.152 0-0.167-0.082-0.315-0.207-0.407l-0.001-0.001-1.055-0.77h1.305c0.001 0 0.002 0 0.003 0 0.22 0 0.406-0.143 0.471-0.341l0.001-0.004 0.405-1.24 0.405 1.24c0.066 0.202 0.252 0.345 0.472 0.345 0.001 0 0.002 0 0.003 0h1.305z"></path>
<path d="M16 5.13c-0.001 0-0.001 0-0.002 0-3.656 0-6.62 2.964-6.62 6.62 0 3.458 2.651 6.296 6.031 6.594l0.025 0.002c0.19 0.015 0.375 0.025 0.565 0.025 0.17 0 0.345-0.010 0.515-0.025h0.050v-0.005c3.404-0.299 6.054-3.137 6.054-6.593 0-3.654-2.963-6.617-6.617-6.617-0.001 0-0.001 0-0.002 0h0zM20.905 14.49c-0.003 0-0.005 0.002-0.005 0.005v0c-0.901 1.592-2.519 2.688-4.404 2.849l-0.021 0.001-0.005 0.005h-0.005c-0.134 0.014-0.289 0.022-0.446 0.022-0.174 0-0.346-0.010-0.515-0.029l0.021 0.002c-2.891-0.254-5.141-2.663-5.141-5.598 0-3.103 2.515-5.618 5.618-5.618s5.618 2.515 5.618 5.618c0 1.007-0.265 1.953-0.73 2.771l0.015-0.028z"></path>
<path d="M29.44 26.365l-1.88-2.915q-2.017-3.113-4.030-6.235c0.105-0.040 0.225-0.085 0.345-0.125 0.561-0.115 1.031-0.442 1.33-0.892l0.005-0.008c0.065-0.193 0.103-0.416 0.103-0.647 0-0.346-0.084-0.672-0.233-0.96l0.006 0.012c-0.112-0.239-0.18-0.518-0.185-0.813l-0-0.002c0.129-0.247 0.298-0.454 0.502-0.622l0.003-0.003c0.438-0.334 0.74-0.828 0.819-1.394l0.001-0.011c-0.079-0.575-0.381-1.068-0.815-1.396l-0.005-0.004c-0.206-0.173-0.375-0.382-0.5-0.619l-0.005-0.011c0.005-0.296 0.073-0.576 0.19-0.827l-0.005 0.012c0.143-0.275 0.227-0.6 0.227-0.945 0-0.23-0.038-0.452-0.107-0.659l0.004 0.015c-0.305-0.457-0.774-0.784-1.321-0.898l-0.014-0.002c-0.285-0.073-0.534-0.196-0.75-0.359l0.005 0.004c-0.106-0.237-0.171-0.512-0.18-0.802l-0-0.003c0-0.017 0.001-0.037 0.001-0.057 0-0.56-0.219-1.068-0.577-1.444l0.001 0.001c-0.305-0.182-0.672-0.29-1.065-0.29-0.185 0-0.364 0.024-0.534 0.069l0.015-0.003c-0.124 0.027-0.266 0.042-0.413 0.042s-0.288-0.015-0.426-0.045l0.013 0.002c-0.207-0.174-0.376-0.385-0.5-0.624l-0.005-0.011c-0.234-0.515-0.653-0.912-1.171-1.11l-0.014-0.005c-0.053-0.005-0.115-0.008-0.177-0.008-0.509 0-0.976 0.184-1.336 0.49l0.003-0.002c-0.216 0.166-0.472 0.292-0.751 0.362l-0.014 0.003c-0.293-0.073-0.549-0.199-0.77-0.369l0.005 0.004c-0.357-0.303-0.822-0.487-1.331-0.487-0.061 0-0.122 0.003-0.182 0.008l0.008-0.001c-0.534 0.201-0.956 0.599-1.185 1.102l-0.005 0.013c-0.129 0.249-0.297 0.459-0.497 0.633l-0.003 0.002c-0.125 0.027-0.268 0.042-0.415 0.042s-0.29-0.015-0.428-0.044l0.014 0.002c-0.155-0.042-0.334-0.065-0.518-0.065-0.392 0-0.758 0.108-1.071 0.296l0.009-0.005c-0.36 0.374-0.581 0.882-0.581 1.443 0 0.022 0 0.044 0.001 0.065l-0-0.003c-0.006 0.291-0.073 0.566-0.19 0.812l0.005-0.012c-0.207 0.16-0.454 0.281-0.721 0.347l-0.014 0.003c-0.562 0.116-1.033 0.443-1.335 0.892l-0.005 0.008c-0.065 0.193-0.103 0.416-0.103 0.647 0 0.346 0.084 0.673 0.233 0.96l-0.005-0.012c0.112 0.239 0.18 0.518 0.185 0.813l0 0.002c-0.13 0.248-0.299 0.457-0.502 0.627l-0.003 0.003c-0.439 0.332-0.741 0.825-0.819 1.389l-0.001 0.011c0.080 0.577 0.382 1.071 0.815 1.401l0.005 0.004c0.207 0.171 0.376 0.378 0.5 0.614l0.005 0.011c-0.005 0.296-0.073 0.576-0.19 0.827l0.005-0.012c-0.143 0.275-0.227 0.6-0.227 0.945 0 0.23 0.037 0.452 0.107 0.659l-0.004-0.015c0.303 0.459 0.773 0.787 1.322 0.898l0.013 0.002c0.115 0.045 0.235 0.085 0.345 0.13q-2.018 3.12-4.030 6.235l-1.88 2.915c-0.051 0.076-0.082 0.17-0.082 0.271 0 0.104 0.033 0.201 0.088 0.28l-0.001-0.002c0.090 0.133 0.241 0.219 0.411 0.219 0.033 0 0.065-0.003 0.097-0.009l-0.003 0.001 3.415-0.635 0.83 3.38c0.050 0.192 0.207 0.337 0.402 0.37l0.003 0c0.024 0.005 0.051 0.009 0.079 0.010l0.001 0c0.001 0 0.002 0 0.003 0 0.175 0 0.328-0.091 0.416-0.228l0.001-0.002 5.39-8.345c0.040 0.010 0.075 0.035 0.115 0.045 0.075 0.019 0.161 0.030 0.25 0.030h0c0.481-0.054 0.912-0.238 1.266-0.514l-0.006 0.004c0.216-0.166 0.472-0.292 0.751-0.362l0.014-0.003c0.293 0.073 0.549 0.199 0.77 0.369l-0.005-0.004c0.355 0.304 0.82 0.489 1.328 0.489 0.066 0 0.131-0.003 0.195-0.009l-0.008 0.001c0.040-0.010 0.075-0.035 0.11-0.045l5.39 8.345c0.089 0.139 0.242 0.23 0.417 0.23 0.001 0 0.002 0 0.003 0h-0c0.029-0.001 0.056-0.005 0.083-0.011l-0.003 0.001c0.198-0.033 0.355-0.178 0.404-0.367l0.001-0.003 0.83-3.38 3.415 0.635c0.028 0.005 0.059 0.009 0.092 0.009 0.171 0 0.322-0.086 0.412-0.217l0.001-0.002c0.054-0.078 0.087-0.174 0.087-0.279 0-0.101-0.031-0.195-0.083-0.273l0.001 0.002zM8.010 28.5l-0.665-2.705c-0.055-0.221-0.252-0.383-0.486-0.383-0.031 0-0.062 0.003-0.092 0.008l0.003-0-2.74 0.51 1.25-1.935q1.875-2.91 3.76-5.82c0.005 0.020 0.009 0.044 0.010 0.069l0 0.001c-0.001 0.017-0.001 0.037-0.001 0.057 0 0.56 0.219 1.068 0.577 1.444l-0.001-0.001c0.305 0.182 0.673 0.29 1.066 0.29 0.184 0 0.363-0.024 0.534-0.068l-0.015 0.003c0.124-0.027 0.266-0.042 0.412-0.042s0.288 0.015 0.426 0.044l-0.013-0.002c0.208 0.173 0.378 0.384 0.5 0.624l0.005 0.011c0.095 0.145 0.19 0.29 0.29 0.43zM18.2 20.645c-0.040 0.045-0.090 0.079-0.148 0.099l-0.002 0.001c-0.14 0.030-0.51-0.195-0.75-0.35-0.359-0.281-0.804-0.468-1.289-0.519l-0.011-0.001c-0.496 0.052-0.941 0.239-1.306 0.524l0.006-0.004c-0.24 0.155-0.61 0.385-0.745 0.355-0.063-0.025-0.117-0.062-0.16-0.11l-0-0c-0.149-0.166-0.283-0.351-0.397-0.549l-0.008-0.016c-0.212-0.418-0.524-0.758-0.905-0.999l-0.010-0.006c-0.197-0.092-0.429-0.146-0.672-0.146-0.018 0-0.037 0-0.055 0.001l0.003-0c-0.234 0.005-0.459 0.023-0.68 0.053l0.030-0.003c-0.31 0.035-0.73 0.085-0.85-0.010s-0.17-0.52-0.205-0.83c-0.007-0.491-0.153-0.946-0.401-1.33l0.006 0.010c-0.040-0.050-0.085-0.095-0.133-0.134l-0.002-0.001c-0.018-0.015-0.037-0.030-0.058-0.044l-0.002-0.001-0.005-0.005h-0.005c-0.283-0.209-0.612-0.375-0.968-0.479l-0.022-0.006c-0.295-0.105-0.695-0.245-0.765-0.395-0.070-0.14 0.070-0.535 0.17-0.825 0.148-0.308 0.235-0.669 0.235-1.051 0-0.111-0.007-0.22-0.021-0.327l0.001 0.013c-0.154-0.45-0.422-0.828-0.771-1.111l-0.004-0.004c-0.22-0.22-0.525-0.525-0.525-0.695s0.305-0.475 0.525-0.695c0.353-0.287 0.621-0.665 0.77-1.098l0.005-0.017c0.013-0.094 0.020-0.203 0.020-0.314 0-0.382-0.087-0.743-0.242-1.066l0.006 0.015c-0.1-0.29-0.24-0.685-0.17-0.83s0.475-0.285 0.77-0.39c0.468-0.112 0.871-0.348 1.184-0.67l0.001-0c0.246-0.371 0.394-0.825 0.4-1.314v-0.002c0.035-0.31 0.080-0.73 0.205-0.83s0.54-0.050 0.85-0.015c0.157 0.035 0.337 0.055 0.522 0.055 0.306 0 0.6-0.055 0.871-0.156l-0.017 0.006c0.392-0.246 0.704-0.586 0.909-0.991l0.007-0.014c0.165-0.27 0.395-0.635 0.56-0.67 0.14-0.035 0.51 0.2 0.75 0.35 0.359 0.281 0.804 0.468 1.289 0.519l0.011 0.001c0.496-0.052 0.941-0.239 1.306-0.524l-0.006 0.004c0.24-0.15 0.605-0.38 0.75-0.35 0.165 0.035 0.395 0.4 0.56 0.67 0.211 0.419 0.523 0.759 0.905 0.999l0.010 0.006c0.254 0.095 0.547 0.15 0.853 0.15 0.185 0 0.365-0.020 0.538-0.058l-0.017 0.003c0.31-0.035 0.73-0.085 0.85 0.010s0.17 0.52 0.205 0.83c0.007 0.491 0.153 0.946 0.401 1.33l-0.006-0.010c0.319 0.322 0.724 0.558 1.178 0.671l0.017 0.004c0.295 0.1 0.695 0.24 0.765 0.39 0.070 0.14-0.070 0.535-0.17 0.825-0.148 0.308-0.235 0.669-0.235 1.051 0 0.111 0.007 0.22 0.021 0.327l-0.001-0.013c0.154 0.45 0.422 0.828 0.771 1.111l0.004 0.004c0.22 0.22 0.525 0.525 0.525 0.695s-0.305 0.475-0.525 0.695c-0.353 0.287-0.621 0.665-0.77 1.098l-0.005 0.017c-0.013 0.094-0.020 0.203-0.020 0.314 0 0.382 0.087 0.743 0.241 1.066l-0.006-0.015c0.1 0.29 0.24 0.685 0.17 0.83s-0.475 0.29-0.765 0.39c-0.396 0.11-0.741 0.285-1.042 0.515l0.007-0.005c-0.056 0.050-0.106 0.102-0.153 0.158l-0.002 0.002c-0.246 0.371-0.394 0.825-0.4 1.314v0.002c-0.035 0.31-0.080 0.73-0.205 0.83s-0.54 0.050-0.85 0.015c-0.158-0.036-0.339-0.057-0.525-0.057-0.305 0-0.597 0.056-0.867 0.157l0.017-0.006c-0.391 0.247-0.703 0.587-0.908 0.991l-0.007 0.014c-0.123 0.216-0.259 0.403-0.413 0.573l0.003-0.003zM25.23 25.42c-0.027-0.005-0.057-0.008-0.089-0.008-0.235 0-0.431 0.162-0.485 0.38l-0.001 0.003-0.665 2.705-4.82-7.465c0.1-0.14 0.195-0.285 0.29-0.43 0.128-0.25 0.295-0.46 0.497-0.633l0.003-0.002c0.125-0.027 0.268-0.042 0.415-0.042s0.29 0.015 0.428 0.044l-0.014-0.002c0.155 0.041 0.334 0.065 0.518 0.065 0.392 0 0.758-0.108 1.071-0.296l-0.009 0.005c0.359-0.373 0.581-0.881 0.581-1.441 0-0.021-0-0.041-0.001-0.062l0 0.003c0.001-0.025 0.005-0.049 0.011-0.072l-0 0.002q1.883 2.91 3.76 5.82l1.25 1.935z"></path>
</symbol>
<symbol id="skill" viewBox="0 0 32 32">
<path d="M32 14.837v2.327c-0.001 0.696-0.565 1.26-1.261 1.261h-1.438c-0.268 0-0.485-0.217-0.485-0.485s0.217-0.485 0.485-0.485h1.438c0.161 0 0.292-0.131 0.292-0.292v0-2.327c0 0 0 0 0 0 0-0.16-0.13-0.29-0.291-0.29-0 0-0.001 0-0.002 0h-2.084c-0.242-0-0.443-0.178-0.479-0.41l-0-0.003c-0.153-0.979-0.397-1.856-0.729-2.687l0.029 0.083c-0.021-0.052-0.033-0.113-0.033-0.176 0-0.178 0.097-0.334 0.241-0.418l0.002-0.001 1.807-1.044c0.089-0.049 0.148-0.142 0.148-0.249 0-0.055-0.015-0.106-0.042-0.149l-1.163-2.014c-0.051-0.088-0.145-0.146-0.252-0.146-0.053 0-0.103 0.014-0.146 0.039l0.001-0.001-1.81 1.046c-0.070 0.041-0.153 0.065-0.242 0.065-0.152 0-0.288-0.070-0.378-0.18l-0.001-0.001c-0.572-0.71-1.198-1.335-1.884-1.889l-0.024-0.018c-0.11-0.090-0.18-0.225-0.18-0.377 0-0.090 0.024-0.174 0.067-0.246l-0.001 0.002 1.044-1.804c0.024-0.042 0.038-0.092 0.038-0.145 0-0.107-0.058-0.201-0.143-0.252l-0.001-0.001-2.015-1.161c-0.042-0.024-0.092-0.038-0.145-0.038-0.107 0-0.201 0.058-0.252 0.143l-0.001 0.001-1.044 1.808c-0.086 0.146-0.242 0.242-0.421 0.242-0.063 0-0.122-0.012-0.177-0.033l0.003 0.001c-0.749-0.306-1.625-0.553-2.535-0.699l-0.070-0.009c-0.234-0.036-0.411-0.236-0.411-0.478 0-0 0-0.001 0-0.001v0-2.084c0-0.161-0.131-0.292-0.292-0.292v0h-2.327c0 0 0 0 0 0-0.16 0-0.29 0.13-0.29 0.29 0 0 0 0.001 0 0.002v-0 2.084c-0 0.242-0.178 0.443-0.41 0.479l-0.003 0c-0.98 0.156-1.856 0.402-2.687 0.738l0.082-0.029c-0.052 0.020-0.111 0.032-0.174 0.032-0.179 0-0.335-0.096-0.42-0.24l-0.001-0.002-1.044-1.815c-0.050-0.085-0.141-0.142-0.246-0.142-0.055 0-0.107 0.016-0.151 0.043l0.001-0.001-2.015 1.163c-0.088 0.052-0.147 0.146-0.147 0.254 0 0.052 0.013 0.1 0.037 0.143l-0.001-0.002 1.046 1.808c0.041 0.070 0.065 0.153 0.065 0.242 0 0.152-0.070 0.288-0.18 0.378l-0.001 0.001c-0.709 0.571-1.334 1.195-1.888 1.88l-0.018 0.023c-0.090 0.111-0.226 0.181-0.378 0.181-0.089 0-0.173-0.024-0.245-0.066l0.002 0.001-1.804-1.047c-0.042-0.024-0.092-0.039-0.145-0.039-0.108 0-0.202 0.058-0.252 0.145l-0.001 0.001-1.161 2.018c-0.026 0.042-0.042 0.093-0.042 0.148 0 0.107 0.059 0.2 0.146 0.248l0.001 0.001 1.808 1.044c0.146 0.085 0.243 0.241 0.243 0.42 0 0.063-0.012 0.123-0.034 0.179l0.001-0.003c-0.306 0.748-0.552 1.625-0.699 2.534l-0.009 0.070c-0.036 0.235-0.237 0.412-0.479 0.412h-2.086c-0.157 0.004-0.283 0.132-0.283 0.29 0 0 0 0 0 0v0 2.327c0 0 0 0 0 0 0 0.158 0.126 0.287 0.283 0.292h2.086c0 0 0.001 0 0.001 0 0.241 0 0.441 0.177 0.477 0.408l0 0.003c0.156 0.98 0.403 1.856 0.738 2.687l-0.029-0.083c0.021 0.052 0.033 0.112 0.033 0.175 0 0.179-0.096 0.335-0.24 0.42l-0.002 0.001-1.815 1.037c-0.087 0.052-0.145 0.146-0.145 0.253 0 0.053 0.014 0.104 0.039 0.147l-0.001-0.001 1.163 2.015c0.052 0.087 0.146 0.144 0.253 0.144 0.053 0 0.103-0.014 0.146-0.039l-0.001 0.001 1.808-1.044c0.070-0.041 0.154-0.066 0.243-0.066 0.152 0 0.288 0.070 0.377 0.179l0.001 0.001c0.572 0.709 1.198 1.335 1.884 1.889l0.024 0.018c0.111 0.090 0.181 0.225 0.181 0.378 0 0.089-0.024 0.172-0.066 0.244l0.001-0.002-1.047 1.815c-0.024 0.041-0.038 0.091-0.038 0.144 0 0.107 0.058 0.201 0.144 0.252l0.001 0.001 2.015 1.163c0.042 0.026 0.093 0.042 0.148 0.042 0.107 0 0.2-0.059 0.248-0.146l0.001-0.001 1.044-1.808c0.085-0.145 0.241-0.241 0.419-0.241 0.063 0 0.124 0.012 0.179 0.034l-0.003-0.001c0.748 0.303 1.624 0.546 2.533 0.691l0.070 0.009c0.235 0.035 0.413 0.235 0.414 0.477v2.086c0 0 0 0.001 0 0.001 0 0.16 0.13 0.291 0.29 0.291 0 0 0 0 0 0h2.327c0.161 0 0.292-0.131 0.292-0.292v0-1.438c0-0.268 0.217-0.485 0.485-0.485s0.485 0.217 0.485 0.485v0 1.438c-0.001 0.696-0.565 1.26-1.261 1.261h-2.325c-0.696-0.001-1.26-0.565-1.261-1.261v-1.675c-0.774-0.145-1.448-0.332-2.097-0.569l0.091 0.029-0.839 1.452c-0.223 0.379-0.628 0.63-1.093 0.63-0.232 0-0.449-0.062-0.635-0.171l0.006 0.003-2.016-1.163c-0.379-0.223-0.629-0.629-0.629-1.093 0-0.232 0.063-0.449 0.172-0.636l-0.003 0.006 0.837-1.454c-0.532-0.456-1.012-0.936-1.453-1.45l-0.015-0.018-1.457 0.839c-0.181 0.105-0.397 0.167-0.629 0.167-0.464 0-0.869-0.25-1.090-0.622l-0.003-0.006-1.163-2.016c-0.105-0.18-0.166-0.397-0.166-0.628 0-0.464 0.25-0.87 0.622-1.091l0.006-0.003 1.452-0.839c-0.207-0.559-0.393-1.234-0.524-1.927l-0.013-0.082h-1.676c-0.695-0.001-1.258-0.564-1.26-1.258v-2.327c0-0.696 0.564-1.26 1.26-1.261h1.676c0.146-0.775 0.333-1.449 0.569-2.098l-0.029 0.092-1.452-0.839c-0.381-0.222-0.632-0.628-0.632-1.093 0-0.231 0.062-0.448 0.171-0.634l-0.003 0.006 1.163-2.016c0.224-0.378 0.63-0.627 1.094-0.627 0.231 0 0.448 0.062 0.634 0.17l-0.006-0.003 1.46 0.837c0.455-0.531 0.934-1.010 1.447-1.45l0.018-0.015-0.837-1.457c-0.105-0.18-0.167-0.397-0.167-0.628 0-0.464 0.249-0.87 0.621-1.090l0.006-0.003 2.016-1.166c0.181-0.106 0.398-0.168 0.629-0.168 0.464 0 0.87 0.251 1.089 0.624l0.003 0.006 0.839 1.452c0.558-0.206 1.231-0.392 1.924-0.524l0.082-0.013v-1.675c0.001-0.696 0.565-1.26 1.261-1.261h2.327c0.695 0.002 1.258 0.566 1.258 1.261v1.675c0.775 0.146 1.449 0.333 2.098 0.569l-0.092-0.029 0.839-1.452c0.223-0.38 0.63-0.632 1.096-0.632 0.231 0 0.448 0.062 0.635 0.17l-0.006-0.003 2.016 1.163c0.378 0.224 0.628 0.629 0.628 1.093 0 0.231-0.062 0.448-0.17 0.635l0.003-0.006-0.839 1.457c0.532 0.456 1.012 0.936 1.453 1.45l0.015 0.018 1.454-0.84c0.181-0.105 0.398-0.167 0.629-0.167 0.464 0 0.87 0.25 1.091 0.622l0.003 0.006 1.163 2.016c0.106 0.181 0.168 0.398 0.168 0.63 0 0.464-0.251 0.87-0.624 1.089l-0.006 0.003-1.452 0.839c0.208 0.56 0.395 1.234 0.527 1.928l0.013 0.081h1.675c0.696 0.001 1.26 0.565 1.261 1.261v0zM31.912 26.016c-0.515 3.377-3.398 5.934-6.878 5.934-3.62 0-6.594-2.766-6.923-6.3l-0.002-0.028c-0.634 0.145-1.363 0.229-2.111 0.229-5.443 0-9.856-4.413-9.856-9.856s4.413-9.856 9.856-9.856c5.443 0 9.856 4.413 9.856 9.856 0 0.757-0.085 1.493-0.247 2.201l0.013-0.066c1.695 0.141 3.195 0.875 4.314 1.992l-0-0c0.093 0.088 0.151 0.213 0.151 0.352 0 0.268-0.217 0.485-0.485 0.485-0.138 0-0.263-0.058-0.351-0.15l-0-0c-1.081-1.078-2.573-1.744-4.221-1.744-3.303 0-5.98 2.677-5.98 5.98s2.677 5.98 5.98 5.98c3.008 0 5.498-2.221 5.918-5.113l0.004-0.032c0.035-0.238 0.237-0.418 0.482-0.418 0.269 0 0.487 0.218 0.487 0.487 0 0.024-0.002 0.048-0.005 0.071l0-0.003zM22.772 10.255l-3.767 3.565c0.439 0.604 0.702 1.36 0.702 2.178 0 0.854-0.287 1.641-0.77 2.269l0.006-0.009 1.547 1.547c1.108-0.968 2.54-1.59 4.114-1.684l0.019-0.001c0.163-0.636 0.256-1.366 0.256-2.118 0-2.198-0.798-4.209-2.12-5.761l0.010 0.012zM16.485 12.318c0.712 0.095 1.345 0.38 1.862 0.802l-0.007-0.005 3.767-3.561c-1.471-1.399-3.429-2.298-5.594-2.418l-0.023-0.001zM16 13.252c-1.518 0-2.748 1.23-2.748 2.748s1.23 2.748 2.748 2.748v0c1.517 0 2.748-1.23 2.748-2.748s-1.23-2.748-2.748-2.748v0zM12.724 17.753c-0.268-0.502-0.425-1.099-0.425-1.732 0-1.881 1.389-3.437 3.196-3.7l0.020-0.002v-5.184c-4.679 0.309-8.357 4.179-8.357 8.909 0 1.752 0.505 3.386 1.377 4.765l-0.022-0.037zM19.809 20.491l-1.546-1.546c-0.619 0.471-1.403 0.755-2.253 0.755-1.064 0-2.025-0.445-2.705-1.159l-0.001-0.002-4.227 3.023c1.647 2.030 4.141 3.317 6.936 3.317 0.741 0 1.461-0.090 2.149-0.261l-0.061 0.013c0.099-1.598 0.728-3.033 1.711-4.148l-0.006 0.008zM31.175 22.020l-5.997 5.998-3.312-3.31c-0.435-0.451-1.134 0.248-0.684 0.686l3.649 3.656c0.088 0.087 0.209 0.142 0.343 0.142s0.255-0.054 0.343-0.142l6.341-6.341c0.451-0.439-0.245-1.141-0.683-0.689z"></path>
</symbol>
</defs>
</svg>
